<?xml version="1.0" standalone="no"?>
<!DOCTYPE svg PUBLIC "-//W3C//DTD SVG 20010904//EN"
 "http://www.w3.org/TR/2001/REC-SVG-20010904/DTD/svg10.dtd">
<svg version="1.0" xmlns="http://www.w3.org/2000/svg"
 width="151.000000pt" height="151.000000pt" viewBox="0 0 151.000000 151.000000"
 preserveAspectRatio="xMidYMid meet">
<metadata>
Created by potrace 1.14, written by Peter Selinger 2001-2017
</metadata>
<g transform="translate(0.000000,151.000000) scale(0.100000,-0.100000)"
fill="#000000" stroke="none">
<path d="M16 1392 c-3 -2 -2 -30 1 -61 8 -77 8 -1092 0 -1164 l-7 -58 338 4
c271 4 348 8 395 21 198 55 337 200 393 411 23 87 28 301 8 395 -53 257 -226
416 -484 445 -64 8 -638 14 -644 7z m591 -277 c124 -18 195 -89 227 -225 20
-87 14 -227 -12 -302 -55 -156 -140 -205 -363 -207 -99 -2 -129 1 -130 11 -1
7 -2 173 -3 368 l-1 355 30 5 c40 7 195 4 252 -5z"/>
<path d="M1210 250 l0 -150 93 0 c110 0 150 17 184 76 19 33 23 54 23 132 l0
92 -150 0 -150 0 0 -150z"/>
</g>
</svg>
